
<svg xmlns="http://www.w3.org/2000/svg" version="1.1" xmlns:xlink="http://www.w3.org/1999/xlink" preserveAspectRatio="none" x="0px" y="0px" width="300px" height="220px" viewBox="0 0 300 220">
<defs>
<linearGradient id="Gradient_1" gradientUnits="userSpaceOnUse" x1="0.7" y1="37.85" x2="0.7" y2="-51.65" spreadMethod="pad">
<stop  offset="0%" stop-color="#0066FD" stop-opacity="0.7490196078431373"/>

<stop  offset="100%" stop-color="#009900" stop-opacity="0.7490196078431373"/>
</linearGradient>

<g id="Symbole_1444_0_Layer0_0_FILL">
<path fill="#CCCCCC" stroke="none" d="
M 169.05 22
Q 166.85 22.05 165.2 22.9 163.55 23.75 162.65 25.15
L 162.65 15.8 157.75 15.8 157.75 41.7 162.65 41.7 162.65 38.95
Q 163.55 40.25 165.2 41.1 166.8 41.95 169.05 42 171.6 42 173.55 40.75 175.55 39.5 176.75 37.25 177.9 35 177.95 31.95 177.9 28.9 176.75 26.65 175.55 24.45 173.55 23.25 171.6 22 169.05 22
M 172.2 28.85
Q 172.9 30.1 172.9 31.95 172.9 33.75 172.2 35.05 171.45 36.35 170.3 37.05 169.1 37.7 167.75 37.7 166.45 37.7 165.3 37.05 164.15 36.4 163.4 35.1 162.7 33.85 162.65 32 162.7 30.15 163.4 28.9 164.15 27.6 165.3 26.95 166.45 26.3 167.75 26.3 169.1 26.3 170.3 26.95 171.45 27.6 172.2 28.85
M 152 22.3
L 147.05 22.3 147.05 25.05
Q 146.2 23.8 144.6 22.95 143 22.05 140.65 22 138.15 22 136.15 23.25 134.15 24.45 133 26.65 131.85 28.9 131.8 31.95 131.85 35 133 37.25 134.15 39.5 136.15 40.75 138.15 42 140.65 42 142.95 41.95 144.55 41.05 146.2 40.15 147.05 38.85
L 147.05 41.7 152 41.7 152 22.3
M 136.8 31.95
Q 136.85 30.1 137.55 28.85 138.25 27.6 139.45 26.95 140.6 26.3 141.9 26.3 143.3 26.3 144.45 26.95 145.6 27.6 146.35 28.9 147.05 30.15 147.05 32 147.05 33.85 146.35 35.1 145.6 36.4 144.45 37.05 143.3 37.7 141.9 37.7 140.6 37.7 139.45 37.05 138.25 36.35 137.55 35.05 136.85 33.75 136.8 31.95
M 122.3 15.8
L 122.3 41.7 127.2 41.7 127.2 15.8 122.3 15.8 Z"/>
</g>

<g id="Mask_ICON_LAB_0_2_MASK_0_FILL">
<path fill="#FFFFFF" stroke="none" d="
M 68.05 87
L 68.05 -79.9 -69.4 -79.9 -69.4 87 68.05 87
M 11.6 -64.8
Q 19.9 -64.8 25.7 -59 31.55 -53.15 31.55 -44.75 31.55 -36.5 25.7 -30.65 19.9 -24.8 11.6 -24.8 3.3 -24.8 -2.65 -30.65 -8.45 -36.5 -8.45 -44.85 -8.45 -53.15 -2.65 -59 3.3 -64.8 11.6 -64.8 Z"/>
</g>

<g id="ICON_LAB_0_Layer0_0_FILL">
<path fill="url(#Gradient_1)" stroke="none" d="
M 11.45 -5.25
Q 12.95 -6.7 15 -6.7
L 25.05 -6.7 25.05 -14.75
Q 12.25 -17.55 -0.05 -10.55 -12.3 -4.65 -25 -12.15
L -25 30.1
Q -25 35.1 -20 35.1
L 20.05 35.1
Q 25.05 35.1 25.05 30.1
L 25.05 23.6 15 23.6
Q 12.95 23.6 11.45 22.1 10 20.65 10 18.6 10 16.55 11.45 15.05 12.95 13.6 15 13.6
L 25.05 13.6 25.05 3.3 15 3.3
Q 12.95 3.3 11.45 1.8 10 0.35 10 -1.7 10 -3.75 11.45 -5.25 Z"/>
</g>

<g id="ICON_LAB_0_Layer0_1_FILL">
<path fill="url(#Gradient_1)" stroke="none" d="
M -2.5 -27
Q -2.5 -29.95 -4.6 -32.05 -6.65 -34.1 -9.6 -34.1 -12.55 -34.1 -14.65 -32.05 -16.7 -29.95 -16.7 -27 -16.7 -24.05 -14.65 -22 -12.55 -19.9 -9.6 -19.9 -6.65 -19.9 -4.6 -22 -2.5 -24.05 -2.5 -27 Z"/>
</g>

<g id="ICON_LAB_0_Layer0_2_FILL">
<path fill="url(#Gradient_1)" stroke="none" d="
M 26.2 -49.9
Q 26.2 -55 22.65 -58.55 19.1 -62.1 14.05 -62.1 9 -62.1 5.4 -58.55 1.85 -55 1.85 -49.95 1.85 -44.85 5.4 -41.3 9 -37.75 14.05 -37.75 19.1 -37.75 22.65 -41.3 26.2 -44.85 26.2 -49.9 Z"/>
</g>

<path id="ICON_LAB_0_Layer4_0_1_STROKES" stroke="#666666" stroke-width="5" stroke-linejoin="round" stroke-linecap="square" fill="none" d="
M -72.75 33.925
Q -80 18.4919921875 -80 0.05 -80 -33.1 -56.6 -56.55 -33.15 -80 0 -80 18.4951171875 -80 33.95 -72.725
M 72.725 -33.9
Q 80 -18.4345703125 80 0.05 80 33.2 56.6 56.6 33.2 80 0 80 -18.4375 80 -33.875 72.75"/>

<path id="Symbole_1_0_Layer0_0_1_STROKES" stroke="#999999" stroke-width="10" stroke-linejoin="round" stroke-linecap="round" fill="none" d="
M 0 -45
L 46.55 -45
Q 45.1 -43.3 44.25 -41.75 43.2 -39.95 42.2 -37.05 40.25 -31.35 40 -24.75
L 40 24.7
Q 40 33.1 34.7 39 29.45 45 22.05 45
L 0 45"/>
</defs>

<g transform="matrix( 1, 0, 0, 1, 0,164.1) ">
<g transform="matrix( 1, 0, 0, 1, 0,0) ">
<use xlink:href="#Symbole_1444_0_Layer0_0_FILL"/>
</g>
</g>

<g transform="matrix( 1, 0, 0, 1, 150,90) ">
<g transform="matrix( 1, 0, 0, 1, 0,0) ">
<use xlink:href="#ICON_LAB_0_Layer4_0_1_STROKES"/>
</g>

<mask id="Mask_Mask_1">
<g transform="matrix( 1, 0, 0, 1, 0,0) ">
<use xlink:href="#Mask_ICON_LAB_0_2_MASK_0_FILL"/>
</g>
</mask>

<g mask="url(#Mask_Mask_1)">
<g transform="matrix( 1, 0, 0, 1, 0,5.1) ">
<g transform="matrix( 1, 0, 0, 1, 0,0) ">
<use xlink:href="#Symbole_1_0_Layer0_0_1_STROKES"/>
</g>
</g>

<g transform="matrix( -1, 0, 0, 1, 0,5.1) ">
<g transform="matrix( 1, 0, 0, 1, 0,0) ">
<use xlink:href="#Symbole_1_0_Layer0_0_1_STROKES"/>
</g>
</g>
</g>

<g transform="matrix( 1, 0, 0, 1, 0,0) ">
<use xlink:href="#ICON_LAB_0_Layer0_0_FILL"/>
</g>

<g transform="matrix( 1, 0, 0, 1, 0,5.1) ">
<use xlink:href="#ICON_LAB_0_Layer0_1_FILL"/>
</g>

<g transform="matrix( 0.82135009765625, 0, 0, 0.82135009765625, -0.05,-3.85) ">
<use xlink:href="#ICON_LAB_0_Layer0_2_FILL"/>
</g>
</g>
</svg>
